<svg xmlns="http://www.w3.org/2000/svg" xmlns:xlink="http://www.w3.org/1999/xlink" width="500" zoomAndPan="magnify" viewBox="0 0 375 374.999991" height="500" preserveAspectRatio="xMidYMid meet" version="1.0"><defs><g/><clipPath id="d189c9fbef"><path d="M 76.769531 76.753906 L 298.019531 76.753906 L 298.019531 298.003906 L 76.769531 298.003906 Z M 76.769531 76.753906 " clip-rule="nonzero"/></clipPath><clipPath id="4c44ce753e"><path d="M 0 191 L 373.5 191 L 373.5 288 L 0 288 Z M 0 191 " clip-rule="nonzero"/></clipPath></defs><g clip-path="url(#d189c9fbef)"><path fill="#9dd9d2" d="M 187.511719 233.171875 C 162.289062 233.171875 141.839844 212.722656 141.839844 187.496094 C 141.839844 162.273438 162.289062 141.824219 187.511719 141.824219 C 212.738281 141.824219 233.1875 162.273438 233.1875 187.496094 C 233.1875 212.722656 212.738281 233.171875 187.511719 233.171875 Z M 292.277344 166.144531 L 271.828125 163.722656 C 269.980469 157.152344 267.359375 150.757812 263.953125 144.683594 L 276.691406 128.519531 C 278.820312 125.820312 278.589844 121.960938 276.160156 119.535156 L 255.476562 98.847656 C 253.050781 96.421875 249.1875 96.191406 246.492188 98.320312 L 230.328125 111.058594 C 224.253906 107.652344 217.855469 105.03125 211.289062 103.183594 L 208.871094 82.734375 C 208.464844 79.324219 205.574219 76.753906 202.140625 76.753906 L 172.886719 76.753906 C 169.453125 76.753906 166.5625 79.324219 166.160156 82.734375 L 163.738281 103.183594 C 157.167969 105.03125 150.773438 107.652344 144.699219 111.058594 L 128.535156 98.320312 C 125.839844 96.191406 121.976562 96.421875 119.546875 98.847656 L 98.863281 119.535156 C 96.4375 121.960938 96.207031 125.820312 98.335938 128.519531 L 111.074219 144.683594 C 107.667969 150.757812 105.042969 157.152344 103.199219 163.722656 L 82.75 166.144531 C 79.339844 166.546875 76.769531 169.4375 76.769531 172.871094 L 76.769531 202.121094 C 76.769531 205.558594 79.339844 208.449219 82.75 208.851562 L 103.199219 211.273438 C 105.042969 217.839844 107.667969 224.238281 111.074219 230.3125 L 98.335938 246.476562 C 96.207031 249.171875 96.4375 253.035156 98.863281 255.460938 L 119.546875 276.144531 C 121.976562 278.574219 125.839844 278.804688 128.535156 276.675781 L 144.699219 263.9375 C 150.773438 267.34375 157.167969 269.964844 163.738281 271.8125 L 166.160156 292.257812 C 166.5625 295.671875 169.453125 298.238281 172.886719 298.238281 L 201.65625 298.238281 C 205.027344 298.238281 207.886719 295.757812 208.363281 292.417969 L 211.289062 271.8125 C 217.855469 269.964844 224.253906 267.34375 230.328125 263.9375 L 246.492188 276.675781 C 249.1875 278.804688 253.050781 278.574219 255.476562 276.144531 L 276.160156 255.460938 C 278.589844 253.035156 278.820312 249.171875 276.691406 246.476562 L 263.953125 230.3125 C 267.359375 224.238281 269.980469 217.839844 271.828125 211.273438 L 292.277344 208.851562 C 295.6875 208.449219 298.253906 205.558594 298.253906 202.121094 L 298.253906 172.871094 C 298.253906 169.4375 295.6875 166.546875 292.277344 166.144531 " fill-opacity="1" fill-rule="nonzero"/></g><g clip-path="url(#4c44ce753e)"><path fill="#fff8f0" d="M 47.203125 253.828125 L 47.203125 203.074219 C 134.222656 187.585938 239.574219 187.589844 326.5625 203.074219 L 326.5625 253.828125 C 239.550781 238.34375 134.195312 238.34375 47.203125 253.828125 Z M 325.390625 256.097656 C 314.019531 254.449219 302.660156 252.402344 291.269531 250.984375 L 291.269531 270.050781 Z M 291.320312 272.746094 C 319.867188 276.730469 346.429688 281.894531 370.121094 287.9375 L 352.765625 259.773438 L 373.78125 237.316406 C 359.828125 233.757812 344.878906 230.503906 329.113281 227.613281 L 329.113281 257.078125 L 291.320312 272.664062 Z M 48.378906 256.097656 C 59.75 254.449219 71.109375 252.402344 82.5 250.984375 L 82.5 270.050781 Z M 82.449219 272.746094 C 53.902344 276.730469 27.339844 281.894531 3.648438 287.9375 L 21.003906 259.773438 L -0.0117188 237.316406 C 13.941406 233.757812 28.890625 230.503906 44.65625 227.613281 L 44.65625 257.078125 L 82.449219 272.664062 L 82.449219 272.746094 " fill-opacity="1" fill-rule="evenodd"/></g><g fill="#392f5a" fill-opacity="1"><g transform="translate(152.611834, 216.41396)"><g><path d="M 14.515625 -9.59375 L 6.078125 -9.390625 L 6.21875 -3.671875 L 16.125 -3.90625 L 16.203125 -0.375 L 1.90625 -0.046875 L 1.421875 -21.375 L 15.6875 -21.703125 L 15.765625 -18.140625 L 5.890625 -17.90625 L 6 -12.828125 L 14.4375 -13.03125 Z M 14.515625 -9.59375 "/></g></g></g><g fill="#392f5a" fill-opacity="1"><g transform="translate(169.269134, 216.082768)"><g/></g></g><g fill="#392f5a" fill-opacity="1"><g transform="translate(176.506871, 216.003529)"><g><path d="M 9.984375 -7.578125 L 6.484375 -7.671875 L 6.296875 0.140625 L 1.90625 0.046875 L 2.40625 -21.28125 L 10.328125 -21.09375 C 12.847656 -21.039062 14.773438 -20.4375 16.109375 -19.28125 C 17.453125 -18.125 18.097656 -16.523438 18.046875 -14.484375 C 18.015625 -13.023438 17.675781 -11.816406 17.03125 -10.859375 C 16.382812 -9.898438 15.410156 -9.144531 14.109375 -8.59375 L 18.515625 0.21875 L 18.515625 0.421875 L 13.796875 0.3125 Z M 6.5625 -11.234375 L 10.109375 -11.140625 C 11.210938 -11.117188 12.070312 -11.378906 12.6875 -11.921875 C 13.300781 -12.460938 13.625 -13.226562 13.65625 -14.21875 C 13.675781 -15.226562 13.40625 -16.023438 12.84375 -16.609375 C 12.289062 -17.203125 11.421875 -17.507812 10.234375 -17.53125 L 6.703125 -17.625 Z M 6.5625 -11.234375 "/></g></g></g><g fill="#392f5a" fill-opacity="1"><g transform="translate(195.411141, 216.509262)"><g/></g></g><g fill="#392f5a" fill-opacity="1"><g transform="translate(202.642637, 216.77602)"><g><path d="M 6.8125 -7.046875 L 6.28125 0.453125 L 1.90625 0.140625 L 3.421875 -21.140625 L 11.703125 -20.546875 C 13.304688 -20.429688 14.691406 -20.039062 15.859375 -19.375 C 17.035156 -18.707031 17.910156 -17.804688 18.484375 -16.671875 C 19.066406 -15.546875 19.304688 -14.300781 19.203125 -12.9375 C 19.054688 -10.851562 18.226562 -9.257812 16.71875 -8.15625 C 15.207031 -7.050781 13.1875 -6.59375 10.65625 -6.78125 Z M 7.078125 -10.59375 L 10.984375 -10.3125 C 12.148438 -10.226562 13.054688 -10.4375 13.703125 -10.9375 C 14.347656 -11.445312 14.707031 -12.207031 14.78125 -13.21875 C 14.851562 -14.257812 14.601562 -15.117188 14.03125 -15.796875 C 13.46875 -16.484375 12.644531 -16.878906 11.5625 -16.984375 L 7.546875 -17.265625 Z M 7.078125 -10.59375 "/></g></g></g><g fill="#392f5a" fill-opacity="1"><g transform="translate(149.741522, 233.979023)"><g><path d="M 11.0625 -5.375 C 11.0625 -4.113281 10.835938 -3.054688 10.390625 -2.203125 C 9.953125 -1.347656 9.300781 -0.722656 8.4375 -0.328125 L 11.015625 2.546875 L 8.09375 2.546875 L 6.140625 0.140625 L 5.96875 0.140625 C 4.332031 0.140625 3.070312 -0.332031 2.1875 -1.28125 C 1.3125 -2.226562 0.875 -3.597656 0.875 -5.390625 C 0.875 -7.171875 1.3125 -8.53125 2.1875 -9.46875 C 3.070312 -10.40625 4.335938 -10.875 5.984375 -10.875 C 7.628906 -10.875 8.882812 -10.398438 9.75 -9.453125 C 10.625 -8.503906 11.0625 -7.144531 11.0625 -5.375 Z M 3.25 -5.375 C 3.25 -4.175781 3.472656 -3.273438 3.921875 -2.671875 C 4.378906 -2.066406 5.0625 -1.765625 5.96875 -1.765625 C 7.78125 -1.765625 8.6875 -2.96875 8.6875 -5.375 C 8.6875 -7.78125 7.785156 -8.984375 5.984375 -8.984375 C 5.078125 -8.984375 4.394531 -8.675781 3.9375 -8.0625 C 3.476562 -7.457031 3.25 -6.5625 3.25 -5.375 Z M 3.25 -5.375 "/></g></g><g transform="translate(161.679998, 233.979023)"><g><path d="M 10.0625 -10.703125 L 10.0625 -3.78125 C 10.0625 -2.988281 9.882812 -2.296875 9.53125 -1.703125 C 9.175781 -1.109375 8.664062 -0.648438 8 -0.328125 C 7.332031 -0.015625 6.539062 0.140625 5.625 0.140625 C 4.25 0.140625 3.179688 -0.207031 2.421875 -0.90625 C 1.660156 -1.613281 1.28125 -2.582031 1.28125 -3.8125 L 1.28125 -10.703125 L 3.53125 -10.703125 L 3.53125 -4.15625 C 3.53125 -3.332031 3.695312 -2.726562 4.03125 -2.34375 C 4.363281 -1.957031 4.914062 -1.765625 5.6875 -1.765625 C 6.425781 -1.765625 6.960938 -1.957031 7.296875 -2.34375 C 7.628906 -2.726562 7.796875 -3.335938 7.796875 -4.171875 L 7.796875 -10.703125 Z M 10.0625 -10.703125 "/></g></g><g transform="translate(173.017888, 233.979023)"><g><path d="M 1.34375 0 L 1.34375 -10.703125 L 3.625 -10.703125 L 3.625 0 Z M 1.34375 0 "/></g></g><g transform="translate(177.983708, 233.979023)"><g><path d="M 3.625 -5.953125 L 4.34375 -5.953125 C 5.0625 -5.953125 5.59375 -6.070312 5.9375 -6.3125 C 6.28125 -6.550781 6.453125 -6.925781 6.453125 -7.4375 C 6.453125 -7.945312 6.273438 -8.304688 5.921875 -8.515625 C 5.578125 -8.734375 5.039062 -8.84375 4.3125 -8.84375 L 3.625 -8.84375 Z M 3.625 -4.109375 L 3.625 0 L 1.34375 0 L 1.34375 -10.703125 L 4.46875 -10.703125 C 5.925781 -10.703125 7.003906 -10.4375 7.703125 -9.90625 C 8.398438 -9.382812 8.75 -8.582031 8.75 -7.5 C 8.75 -6.875 8.570312 -6.3125 8.21875 -5.8125 C 7.875 -5.320312 7.382812 -4.941406 6.75 -4.671875 C 8.363281 -2.265625 9.414062 -0.707031 9.90625 0 L 7.390625 0 L 4.828125 -4.109375 Z M 3.625 -4.109375 "/></g></g><g transform="translate(187.886051, 233.979023)"><g><path d="M 5.890625 -8.96875 C 5.035156 -8.96875 4.375 -8.644531 3.90625 -8 C 3.4375 -7.363281 3.203125 -6.472656 3.203125 -5.328125 C 3.203125 -2.941406 4.097656 -1.75 5.890625 -1.75 C 6.648438 -1.75 7.5625 -1.9375 8.625 -2.3125 L 8.625 -0.40625 C 7.75 -0.0390625 6.769531 0.140625 5.6875 0.140625 C 4.125 0.140625 2.929688 -0.328125 2.109375 -1.265625 C 1.285156 -2.210938 0.875 -3.570312 0.875 -5.34375 C 0.875 -6.457031 1.078125 -7.429688 1.484375 -8.265625 C 1.890625 -9.097656 2.46875 -9.738281 3.21875 -10.1875 C 3.976562 -10.632812 4.867188 -10.859375 5.890625 -10.859375 C 6.929688 -10.859375 7.976562 -10.609375 9.03125 -10.109375 L 8.296875 -8.265625 C 7.898438 -8.453125 7.5 -8.613281 7.09375 -8.75 C 6.6875 -8.894531 6.285156 -8.96875 5.890625 -8.96875 Z M 5.890625 -8.96875 "/></g></g><g transform="translate(197.444156, 233.979023)"><g><path d="M 9.96875 0 L 7.390625 0 L 4.578125 -4.515625 L 3.625 -3.828125 L 3.625 0 L 1.34375 0 L 1.34375 -10.703125 L 3.625 -10.703125 L 3.625 -5.8125 L 4.515625 -7.0625 L 7.40625 -10.703125 L 9.9375 -10.703125 L 6.203125 -5.96875 Z M 9.96875 0 "/></g></g><g transform="translate(207.405093, 233.979023)"><g><path d="M 1.34375 0 L 1.34375 -10.703125 L 3.625 -10.703125 L 3.625 -1.875 L 7.96875 -1.875 L 7.96875 0 Z M 1.34375 0 "/></g></g><g transform="translate(215.879214, 233.979023)"><g><path d="M 4.6875 -6.296875 L 6.921875 -10.703125 L 9.359375 -10.703125 L 5.8125 -4.171875 L 5.8125 0 L 3.546875 0 L 3.546875 -4.09375 L 0 -10.703125 L 2.46875 -10.703125 Z M 4.6875 -6.296875 "/></g></g></g></svg>